<?xml version="1.0" standalone="no"?>
<!DOCTYPE svg PUBLIC "-//W3C//DTD SVG 20010904//EN"
 "http://www.w3.org/TR/2001/REC-SVG-20010904/DTD/svg10.dtd">
<svg version="1.0" xmlns="http://www.w3.org/2000/svg"
 width="512.000000pt" height="512.000000pt" viewBox="0 0 512.000000 512.000000"
 preserveAspectRatio="xMidYMid meet">

<g transform="translate(0.000000,512.000000) scale(0.100000,-0.100000)"
fill="#000000" stroke="none">
<path d="M3325 3960 c-143 -14 -231 -37 -380 -99 -290 -121 -547 -356 -674
-616 -11 -22 -29 -49 -40 -59 -20 -19 -22 -18 -94 50 -40 38 -99 87 -132 109
-33 22 -62 43 -65 47 -8 10 -179 88 -194 88 -6 0 -16 4 -22 8 -13 11 -107 38
-184 54 -133 26 -397 13 -515 -26 -22 -7 -58 -19 -80 -26 -67 -21 -258 -118
-291 -147 -17 -15 -44 -38 -60 -50 -72 -58 -161 -155 -219 -242 -100 -152
-114 -183 -182 -416 -26 -88 -26 -405 0 -490 10 -33 28 -91 39 -130 34 -118
100 -237 202 -365 65 -81 73 -89 186 -178 84 -67 113 -85 220 -138 67 -34 100
-45 220 -74 19 -5 53 -13 75 -19 56 -15 2493 -15 2555 0 25 6 65 14 90 19 234
43 484 180 670 370 47 48 92 96 100 106 66 84 80 103 80 108 0 4 16 30 35 59
19 28 35 56 35 61 0 5 13 37 29 70 31 66 72 183 90 256 16 67 41 259 41 310 0
46 -32 264 -49 335 -30 124 -114 315 -186 420 -51 74 -193 245 -204 245 -3 0
-17 10 -31 23 -47 42 -155 123 -209 156 -61 37 -203 100 -271 120 -25 7 -61
19 -80 26 -92 33 -347 51 -505 35z m333 -386 c112 -26 145 -35 187 -54 22 -10
51 -24 65 -30 101 -46 190 -110 283 -205 37 -38 137 -169 137 -180 0 -5 6 -16
13 -24 7 -9 26 -45 41 -81 73 -166 81 -208 81 -410 -1 -168 -2 -179 -32 -270
-52 -161 -151 -326 -251 -422 -69 -65 -156 -138 -165 -138 -4 0 -28 -13 -55
-30 -61 -37 -216 -92 -307 -109 -78 -15 -318 -10 -395 7 -39 9 -164 52 -225
77 -19 8 -120 74 -159 105 -57 43 -153 143 -197 203 -84 114 -108 166 -164
352 -26 87 -28 374 -2 460 46 153 57 181 108 275 24 44 62 93 107 141 23 25
50 56 58 68 40 57 206 162 339 214 166 65 383 86 533 51z m-2160 -410 c122
-34 148 -45 261 -109 17 -10 67 -48 122 -93 37 -30 138 -174 170 -242 34 -71
47 -117 59 -210 27 -212 53 -339 84 -405 13 -28 26 -58 40 -95 3 -8 10 -22 16
-30 5 -8 31 -51 57 -95 61 -102 95 -147 156 -212 47 -49 48 -52 29 -62 -25
-13 -1125 -14 -1242 -1 -89 10 -169 27 -184 39 -6 4 -33 16 -61 27 -92 33
-173 95 -282 216 -54 61 -89 128 -154 298 -21 53 -18 350 3 410 37 104 66 166
104 225 100 154 283 284 469 334 93 24 275 27 353 5z"/>
</g>
</svg>
